<svg width="330" height="330" xmlns="http://www.w3.org/2000/svg" xmlns:xlink="http://www.w3.org/1999/xlink" xml:space="preserve" overflow="hidden"><defs><clipPath id="clip0"><rect x="1167" y="789" width="330" height="330"/></clipPath></defs><g clip-path="url(#clip0)" transform="translate(-1167 -789)"><g><g><g><path d="M1060.18 923.696 1157.16 867.772C1170.03 860.355 1170.03 848.336 1157.16 840.94L1060.18 785.015C1047.31 777.592 1026.49 777.592 1013.63 785.015L916.644 840.94C903.775 848.363 903.775 860.376 916.644 867.772L1013.63 923.696C1026.49 931.12 1047.31 931.12 1060.18 923.696Z" fill="#00AB9C" fill-rule="evenodd" transform="matrix(1.00023 0 0 1 294.526 118.202)"/><path d="M1060.18 862.299 1141.64 815.437C1154.51 808.034 1154.51 796.056 1141.64 788.673L1060.18 741.812C1047.31 734.409 1026.49 734.409 1013.62 741.812L932.166 788.673C919.296 796.076 919.296 808.055 932.166 815.437L1013.62 862.299C1026.49 869.702 1047.31 869.702 1060.18 862.299Z" fill="#FFFFFF" fill-rule="evenodd" transform="matrix(1.00023 0 0 1 294.526 118.202)"/><path d="M915.659 877.733C915.659 877.733 894.577 887.511 886.425 892.964 880.864 896.682 866.706 907.514 886.425 919.694 906.137 931.869 981.247 976.625 1014.15 993.233 1024.51 998.456 1040.4 1004.9 1060.6 993.233 1080.78 981.571 1157.75 940.257 1188.33 919.694 1193.89 915.949 1207.42 904.834 1188.33 892.964 1169.24 881.087 1155.24 874.939 1155.24 874.939" stroke="#000000" stroke-width="2.31979" stroke-miterlimit="8" fill="none" fill-rule="evenodd" transform="matrix(1.00023 0 0 1 294.526 118.202)"/><path d="M950.845 784.448C950.845 784.448 935.027 792.148 930.074 795.246 926.031 797.763 916.077 805.551 930.074 814.175 944.077 822.793 997.477 854.484 1020.85 866.247 1028.22 869.945 1039.5 874.52 1053.85 866.247 1068.2 857.973 1122.88 828.712 1144.62 814.175 1148.58 811.537 1158.18 803.655 1144.62 795.246 1131.06 786.831 1121.11 782.485 1121.11 782.485" stroke="#000000" stroke-width="2.31979" stroke-miterlimit="8" fill="none" fill-rule="evenodd" transform="matrix(1.00023 0 0 1 294.526 118.202)"/><path d="M1103.37 737.607C1103.37 774.508 1073.61 804.417 1036.9 804.417 1000.19 804.417 970.43 774.508 970.43 737.607 970.43 700.707 1000.19 670.798 1036.9 670.798 1073.61 670.798 1103.37 700.707 1103.37 737.607Z" fill="#00AB9C" fill-rule="evenodd" transform="matrix(1.00023 0 0 1 294.526 118.202)"/></g></g></g></g></svg>