<svg width="639" height="648" xmlns="http://www.w3.org/2000/svg" xmlns:xlink="http://www.w3.org/1999/xlink" xml:space="preserve" overflow="hidden"><defs><clipPath id="clip0"><rect x="129" y="0" width="639" height="648"/></clipPath></defs><g clip-path="url(#clip0)" transform="translate(-129 0)"><path d="M494.712 636.935 748.847 490.174C774.384 475.419 774.384 451.535 748.847 436.827L494.712 290.066C469.175 275.312 427.825 275.312 402.287 290.066L148.153 436.827C122.615 451.581 122.615 475.465 148.153 490.174L402.287 636.935C427.825 651.689 469.175 651.689 494.712 636.935Z" fill="#5633FE" fill-rule="evenodd"/><path d="M494.639 499.928 686.877 388.691C712.375 373.927 712.375 350.028 686.877 335.31L494.639 224.073C469.142 209.309 427.859 209.309 402.362 224.073L210.123 335.31C184.626 350.074 184.626 373.973 210.123 388.691L402.362 499.928C427.859 514.691 469.142 514.691 494.639 499.928Z" fill="#315AFE" fill-rule="evenodd"/><path d="M495.197 376.948 656.853 283.642C682.383 268.905 682.383 245.049 656.853 230.358L495.197 137.053C469.668 122.316 428.332 122.316 402.803 137.053L241.147 230.358C215.618 245.095 215.618 268.951 241.147 283.642L402.803 376.948C428.332 391.685 469.668 391.685 495.197 376.948Z" fill="#0D87FF" fill-rule="evenodd"/><path d="M586 131.5C586 204.126 527.126 263 454.5 263 381.875 263 323 204.126 323 131.5 323 58.8744 381.875 0 454.5 0 527.126 0 586 58.8744 586 131.5Z" fill="#FF6C37" fill-rule="evenodd"/></g></svg>