<svg width="2564" height="2594" xmlns="http://www.w3.org/2000/svg" xmlns:xlink="http://www.w3.org/1999/xlink" xml:space="preserve" overflow="hidden"><defs><clipPath id="clip0"><rect x="1102" y="124" width="2196" height="2227"/></clipPath><clipPath id="clip1"><rect x="1102" y="124" width="2196" height="2227"/></clipPath><clipPath id="clip2"><rect x="1102" y="124" width="2196" height="2227"/></clipPath><clipPath id="clip3"><rect x="1102" y="124" width="2196" height="2227"/></clipPath></defs><g transform="translate(-918 59)"><path d="M2359.27 2313.48 3232.63 1809.16C3320.39 1758.46 3320.39 1676.38 3232.63 1625.84L2359.27 1121.52C2271.51 1070.83 2129.4 1070.83 2041.64 1121.52L1168.28 1625.84C1080.51 1676.54 1080.51 1758.61 1168.28 1809.16L2041.64 2313.48C2129.4 2364.18 2271.51 2364.18 2359.27 2313.48Z" stroke="#FFFFFF" stroke-width="366.667" stroke-miterlimit="8" fill="#5633FE" fill-rule="evenodd"/><path d="M2359.03 1842.45 3019.73 1460.22C3107.36 1409.48 3107.36 1327.36 3019.73 1276.79L2359.03 894.549C2271.4 843.817 2129.51 843.817 2041.88 894.549L1381.18 1276.79C1293.55 1327.52 1293.55 1409.64 1381.18 1460.22L2041.88 1842.45C2129.51 1893.18 2271.4 1893.18 2359.03 1842.45Z" stroke="#FFFFFF" stroke-width="366.667" stroke-miterlimit="8" fill="#315AFE" fill-rule="evenodd"/><path d="M2360.79 1420.49 2916.62 1099.62C3004.4 1048.94 3004.4 966.9 2916.62 916.379L2360.79 595.509C2273.02 544.83 2130.89 544.83 2043.11 595.509L1487.29 916.379C1399.51 967.058 1399.51 1049.1 1487.29 1099.62L2043.11 1420.49C2130.89 1471.17 2273.02 1471.17 2360.79 1420.49Z" stroke="#FFFFFF" stroke-width="366.667" stroke-miterlimit="8" fill="#0D87FF" fill-rule="evenodd"/><path d="M2673.45 576.5C2673.45 826.135 2471.09 1028.5 2221.45 1028.5 1971.82 1028.5 1769.45 826.135 1769.45 576.5 1769.45 326.867 1971.82 124.5 2221.45 124.5 2471.09 124.5 2673.45 326.867 2673.45 576.5Z" stroke="#FFFFFF" stroke-width="366.667" stroke-miterlimit="8" fill="#FF6C37" fill-rule="evenodd"/><g clip-path="url(#clip0)"><g clip-path="url(#clip1)"><g clip-path="url(#clip2)"><g clip-path="url(#clip3)"><path d="M1700.14 2188.9 2573.5 1684.54C2661.26 1633.83 2661.26 1551.75 2573.5 1501.21L1700.14 996.846C1612.38 946.143 1470.27 946.143 1382.51 996.846L509.145 1501.21C421.381 1551.91 421.381 1633.99 509.145 1684.54L1382.51 2188.9C1470.27 2239.61 1612.38 2239.61 1700.14 2188.9Z" fill="#5633FE" fill-rule="evenodd" transform="matrix(1 0 0 1.00003 658.676 124)"/><path d="M1699.89 1718.06 2360.53 1335.78C2448.16 1285.04 2448.16 1202.91 2360.53 1152.33L1699.89 770.054C1612.26 719.315 1470.39 719.315 1382.77 770.054L722.113 1152.33C634.489 1203.07 634.489 1285.2 722.113 1335.78L1382.77 1718.06C1470.39 1768.8 1612.26 1768.8 1699.89 1718.06Z" fill="#315AFE" fill-rule="evenodd" transform="matrix(1 0 0 1.00003 658.676 124)"/><path d="M1701.8 1295.43 2257.35 974.77C2345.09 924.124 2345.09 842.14 2257.35 791.653L1701.8 470.999C1614.07 420.354 1472.01 420.354 1384.28 470.999L828.73 791.653C740.997 842.298 740.997 924.282 828.73 974.77L1384.28 1295.43C1472.01 1346.07 1614.07 1346.07 1701.8 1295.43Z" fill="#0D87FF" fill-rule="evenodd" transform="matrix(1 0 0 1.00003 658.676 124)"/><path d="M2013.86 451.915C2013.86 701.503 1811.53 903.831 1561.94 903.831 1312.36 903.831 1110.03 701.503 1110.03 451.915 1110.03 202.329 1312.36 0 1561.94 0 1811.53 0 2013.86 202.329 2013.86 451.915Z" fill="#FF6C37" fill-rule="evenodd" transform="matrix(1 0 0 1.00003 658.676 124)"/></g></g></g></g></g></svg>