<svg width="798" height="189" xmlns="http://www.w3.org/2000/svg" xmlns:xlink="http://www.w3.org/1999/xlink" overflow="hidden"><defs><clipPath id="clip0"><rect x="0" y="0" width="798" height="189"/></clipPath></defs><g clip-path="url(#clip0)"><rect x="0" y="0" width="798" height="188.882" fill="#FFFFFF" fill-opacity="0"/><path d="M144.451 185.645 218.425 142.717C225.858 138.402 225.858 131.416 218.425 127.114L144.451 84.186C137.018 79.8704 124.982 79.8704 117.548 84.186L43.5751 127.114C36.1416 131.429 36.1416 138.415 43.5751 142.717L117.548 185.645C124.982 189.961 137.018 189.961 144.451 185.645Z" fill="#5633FE" fill-rule="evenodd"/><path d="M144.438 145.676 200.43 113.221C207.857 108.914 207.857 101.941 200.43 97.6467L144.438 65.1918C137.012 60.8843 124.988 60.8843 117.562 65.1918L61.5697 97.6467C54.1435 101.954 54.1435 108.927 61.5697 113.221L117.562 145.676C124.988 149.984 137.012 149.984 144.438 145.676Z" fill="#315AFE" fill-rule="evenodd"/><path d="M144.432 109.725 191.433 82.6765C198.856 78.4042 198.856 71.4885 191.433 67.2297L144.432 40.181C137.009 35.9087 124.991 35.9087 117.568 40.181L70.567 67.2297C63.1443 71.5019 63.1443 78.4176 70.567 82.6765L117.568 109.725C124.991 113.997 137.009 113.997 144.432 109.725Z" fill="#0D87FF" fill-rule="evenodd"/><path d="M171 37.9762C171 58.9499 153.763 75.9523 132.5 75.9523 111.237 75.9523 94 58.9499 94 37.9762 94 17.0025 111.237 0 132.5 0 153.763 0 171 17.0025 171 37.9762Z" fill="#FF6C37" fill-rule="evenodd"/><path d="M499.188 33.9787C501.114 33.9787 502.644 34.5451 503.791 35.6779 504.939 36.8108 505.513 38.2807 505.513 40.0879L505.513 115.489C505.513 119.009 506.223 121.908 507.643 124.174 509.064 126.44 510.826 127.559 512.93 127.559L516.358 127.559C518.093 127.559 519.473 128.125 520.484 129.258 521.495 130.391 522 131.901 522 133.803 522 135.705 521.249 137.08 519.732 138.213 518.216 139.346 516.277 139.912 513.9 139.912L512.943 139.912 512.916 139.899C509.064 139.899 505.635 138.86 502.617 136.783 499.598 134.707 497.235 131.834 495.541 128.166 493.847 124.511 493 120.276 493 115.489L493 40.0879C493 38.2807 493.574 36.8108 494.721 35.6779 495.869 34.5451 497.358 33.9787 499.188 33.9787Z" fill="#323A46" fill-rule="evenodd"/><path d="M360.159 41.9736C361.968 41.9736 363.467 42.5679 364.642 43.7428 365.816 44.9177 366.41 46.4168 366.41 48.2265L366.41 68.3084 379.44 68.3084C381.074 68.3084 382.424 68.8081 383.517 69.8074 384.598 70.8068 385.151 72.1169 385.151 73.7509 385.151 75.2905 384.611 76.56 383.517 77.5594 382.437 78.5587 381.074 79.0584 379.44 79.0584L366.41 79.0584 366.41 113.55C366.41 117.629 367.545 120.978 369.799 123.598 372.054 126.232 374.917 127.542 378.346 127.542L382.559 127.542C384.098 127.542 385.381 128.136 386.434 129.311 387.473 130.486 388 131.985 388 133.794 388 135.604 387.338 137.076 386.029 138.21 384.719 139.345 383.018 139.912 380.939 139.912L378.36 139.912 378.346 139.899C373.728 139.899 369.57 138.751 365.857 136.441 362.144 134.132 359.254 131.012 357.162 127.069 355.082 123.125 354.043 118.628 354.043 113.55L354.043 79.0584 346.711 79.0584C345.078 79.0584 343.727 78.5587 342.634 77.5594 341.554 76.56 341 75.304 341 73.7509 341 72.1169 341.54 70.8068 342.634 69.8074 343.714 68.8081 345.078 68.3084 346.711 68.3084L354.043 68.3084 354.043 48.2265C354.043 46.4168 354.61 44.9177 355.744 43.7428 356.878 42.5679 358.35 41.9736 360.159 41.9736Z" fill="#323A46" fill-rule="evenodd"/><path d="M475.971 102.51 475.986 102.516 475.986 133.306C475.986 135.105 475.38 136.596 474.153 137.764 472.926 138.932 471.415 139.523 469.608 139.523L469.622 139.51C467.815 139.51 466.318 138.919 465.145 137.751 463.972 136.582 463.379 135.092 463.379 133.293L463.379 126.485 466.507 122.228C469.581 116.736 471.119 110.573 471.119 103.725ZM438.433 76.0505C433.551 76.0505 429.439 77.2053 425.555 79.488 421.672 81.784 418.611 84.9396 416.399 88.941 414.188 92.9425 413.082 97.4675 413.082 102.516 413.082 107.565 414.188 111.942 416.399 115.957 418.611 119.959 421.658 123.114 425.555 125.41 429.439 127.707 433.74 128.848 438.433 128.848 443.314 128.848 447.656 127.693 451.445 125.41 455.248 123.114 458.241 119.959 460.466 115.957 462.677 111.956 463.783 107.471 463.783 102.516 463.783 97.5615 462.677 92.9558 460.466 88.941 458.255 84.9396 455.248 81.784 451.445 79.488 447.642 77.1918 443.314 76.0505 438.433 76.0505ZM438.433 64.9593C445.485 64.9593 451.944 66.5974 457.553 69.8872 463.163 73.1769 467.613 77.6483 470.916 83.3283 474.22 88.9947 475.906 95.3997 476 102.503L475.971 102.51 471.119 103.725C471.119 110.573 469.581 116.736 466.507 122.228L463.379 126.485 461.098 129.588C459.03 131.748 456.697 133.615 454.101 135.186 448.896 138.341 443.004 139.912 436.41 139.912L436.396 139.912C429.614 139.912 423.559 138.288 418.219 135.051 412.88 131.815 408.686 127.357 405.612 121.678 402.537 116.011 401 109.62 401 102.503 401 95.3863 402.645 88.8873 405.949 83.2612 409.252 77.635 413.729 73.1769 419.379 69.8872 425.029 66.5974 431.38 64.9593 438.433 64.9593Z" fill="#323A46" fill-rule="evenodd"/><path d="M601.971 102.51 601.987 102.516 601.987 133.306C601.987 135.105 601.388 136.596 600.177 137.764 598.967 138.932 597.476 139.523 595.694 139.523L595.707 139.51C593.924 139.51 592.447 138.919 591.29 137.751 590.132 136.582 589.547 135.092 589.547 133.293L589.547 126.485 592.634 122.228C595.667 116.736 597.184 110.573 597.184 103.725ZM564.933 76.0505C560.117 76.0505 556.059 77.2053 552.228 79.488 548.396 81.784 545.376 84.9396 543.194 88.941 541.012 92.9425 539.921 97.4675 539.921 102.516 539.921 107.565 541.012 111.942 543.194 115.957 545.376 119.959 548.383 123.114 552.228 125.41 556.059 127.707 560.303 128.848 564.933 128.848 569.75 128.848 574.034 127.693 577.772 125.41 581.524 123.114 584.478 119.959 586.673 115.957 588.855 111.956 589.946 107.471 589.946 102.516 589.946 97.5615 588.855 92.9558 586.673 88.941 584.491 84.9396 581.524 81.784 577.772 79.488 574.02 77.1918 569.75 76.0505 564.933 76.0505ZM564.933 64.9593C571.892 64.9593 578.265 66.5974 583.799 69.8872 589.334 73.1769 593.725 77.6483 596.984 83.3283 600.244 88.9947 601.907 95.3997 602 102.503L601.971 102.51 597.184 103.725C597.184 110.573 595.667 116.736 592.634 122.228L589.547 126.485 587.297 129.588C585.256 131.748 582.954 133.615 580.393 135.186 575.258 138.341 569.444 139.912 562.938 139.912L562.924 139.912C556.232 139.912 550.259 138.288 544.99 135.051 539.721 131.815 535.584 127.357 532.55 121.678 529.517 116.011 528 109.62 528 102.503 528 95.3863 529.623 88.8873 532.883 83.2612 536.142 77.635 540.56 73.1769 546.134 69.8872 551.709 66.5974 557.975 64.9593 564.933 64.9593Z" fill="#323A46" fill-rule="evenodd"/><path d="M726.419 76.0505C721.538 76.0505 717.425 77.2053 713.542 79.488 709.658 81.784 706.597 84.9396 704.386 88.941 702.174 92.9425 701.069 97.4675 701.069 102.516 701.069 107.565 702.174 111.942 704.386 115.957 706.597 119.959 709.645 123.114 713.542 125.41 717.425 127.707 721.727 128.848 726.419 128.848 731.3 128.848 735.642 127.693 739.431 125.41 743.234 123.114 746.228 119.959 748.452 115.957 750.664 111.956 751.77 107.471 751.77 102.516 751.77 97.5615 750.664 92.9558 748.452 88.941 746.241 84.9396 743.234 81.784 739.431 79.488 735.629 77.1918 731.3 76.0505 726.419 76.0505ZM726.433 64.9593C733.485 64.9593 739.944 66.5974 745.553 69.8872 751.163 73.1769 755.613 77.6483 758.916 83.3283 762.22 88.9947 763.906 95.3997 764 102.503L763.962 102.512 763.973 102.516 763.973 133.306C763.973 135.105 763.366 136.596 762.139 137.764 760.912 138.932 759.402 139.523 757.595 139.523L757.608 139.509C755.801 139.509 754.305 138.919 753.132 137.75 751.958 136.582 751.365 135.092 751.365 133.292L751.365 126.503 749.098 129.588C747.03 131.748 744.697 133.615 742.101 135.186 736.896 138.341 731.004 139.912 724.41 139.912L724.396 139.912C717.614 139.912 711.559 138.288 706.219 135.051 700.88 131.815 696.686 127.357 693.612 121.678 690.537 116.011 689 109.62 689 102.503 689 95.3863 690.645 88.8873 693.949 83.2612 697.252 77.635 701.729 73.1769 707.379 69.8872 713.029 66.5974 719.38 64.9593 726.433 64.9593Z" fill="#323A46" fill-rule="evenodd"/><path d="M265.126 105.181 260.111 115.89 260.111 115.89 265.126 105.181ZM289.661 49.719 291.621 54.5355 270.847 105.181 270.847 105.181 312.237 105.181 291.621 54.5355 291.621 54.5354 289.661 49.7191 293.597 49.7191 293.597 49.719ZM291.413 33.9787C294.392 33.9787 296.428 35.4219 297.52 38.3217L336.424 130.956C337.328 133.128 337.166 135.164 335.953 137.066 334.726 138.968 332.947 139.912 330.601 139.912 329.428 139.912 328.296 139.575 327.217 138.901 326.139 138.226 325.317 137.255 324.777 135.987L316.597 115.89 266.454 115.89 266.454 115.89 258.211 135.987C257.671 137.336 256.849 138.334 255.771 138.968 254.692 139.602 253.506 139.912 252.252 139.912L252.239 139.899C249.893 139.899 248.127 138.901 246.954 136.918 245.782 134.935 245.687 132.845 246.685 130.687L285.455 38.3217C286.627 35.4219 288.623 33.9787 291.413 33.9787Z" fill="#323A46" fill-rule="evenodd"/><path d="M617.98 65.9736C618.72 65.9185 619.442 66.0155 620.148 66.2631 621.559 66.7585 622.63 67.8162 623.349 69.4227L649.053 120.969 672.34 69.5699C673.571 67.0095 675.336 65.8197 677.636 65.9891 678.403 66.0457 679.228 66.2532 680.114 66.6113 683.845 68.1375 684.889 70.6945 683.248 74.2824L640.539 168.117C639.453 170.634 637.812 171.892 635.628 171.892L635.628 171.879C634.814 171.879 633.85 171.651 632.765 171.209 629.129 169.59 628.125 167.032 629.767 163.538L643.357 133.541 612.713 74.1351C611.899 72.6089 611.777 71.123 612.374 69.6904 612.971 68.2579 614.083 67.2271 615.711 66.5978 616.484 66.2364 617.241 66.0289 617.98 65.9736Z" fill="#FF6C37" fill-rule="evenodd"/></g></svg>