<svg width="654" height="155" viewBox="0 0 654 155" fill="none" xmlns="http://www.w3.org/2000/svg">
<rect width="86.808" height="86.808" rx="11.5744" transform="matrix(0.866025 -0.5 -0.866025 -0.5 76.0352 144)" fill="#5633FE"/>
<g filter="url(#filter0_dddd_48_788)">
<rect width="71.3755" height="71.3755" rx="11.5744" transform="matrix(0.866025 -0.5 -0.866025 -0.5 76.0381 114.183)" fill="#315AFE"/>
</g>
<g filter="url(#filter1_dddd_48_788)">
<rect width="63.6592" height="63.6592" rx="11.5744" transform="matrix(0.866025 -0.5 -0.866025 -0.5 76.0381 87.6592)" fill="#0D87FF"/>
</g>
<g filter="url(#filter2_dddd_48_788)">
<circle cx="77.3594" cy="28.5" r="28.5" fill="#FF6C37"/>
</g>
<path d="M617.079 108.617C612.288 108.617 607.994 107.713 604.198 105.905C600.492 104.007 597.554 101.476 595.384 98.3122C593.305 95.1484 592.266 91.5778 592.266 87.6004C592.266 82.7191 593.531 78.8773 596.062 76.075C598.593 73.1824 602.706 71.1033 608.401 69.8378C614.096 68.5722 621.734 67.9395 631.316 67.9395H636.062V65.092C636.062 60.5722 635.068 57.318 633.079 55.3293C631.09 53.3406 627.746 52.3463 623.045 52.3463C619.339 52.3463 615.542 52.9339 611.655 54.109C607.768 55.1937 603.836 56.9112 599.859 59.2615L594.977 47.7361C597.328 46.109 600.085 44.7079 603.249 43.5328C606.503 42.2672 609.893 41.3181 613.418 40.6853C617.034 39.9622 620.424 39.6006 623.588 39.6006C633.26 39.6006 640.446 41.8605 645.147 46.3802C649.847 50.8096 652.198 57.7248 652.198 67.1259V107.261H636.333V96.6851C634.797 100.391 632.356 103.329 629.011 105.499C625.667 107.578 621.689 108.617 617.079 108.617ZM620.604 96.9563C625.034 96.9563 628.695 95.4196 631.588 92.3461C634.571 89.2727 636.062 85.3857 636.062 80.6852V77.7021H631.452C622.955 77.7021 617.034 78.3801 613.689 79.736C610.435 81.0016 608.808 83.3518 608.808 86.7868C608.808 89.7699 609.847 92.2106 611.927 94.1089C614.006 96.0071 616.898 96.9563 620.604 96.9563Z" fill="#ffffff"/>
<path d="M531.753 132L543.956 104.881L516.431 41.2881H534.465L553.041 87.6608L572.024 41.2881H589.108L549.244 132H531.753Z" fill="#ffffff"/>
<path d="M474.125 108.95C469.334 108.95 465.04 108.046 461.244 106.238C457.537 104.34 454.6 101.809 452.43 98.6452C450.351 95.4814 449.312 91.9108 449.312 87.9334C449.312 83.0521 450.577 79.2103 453.108 76.408C455.639 73.5154 459.752 71.4363 465.447 70.1708C471.142 68.9052 478.78 68.2725 488.362 68.2725H493.108V65.425C493.108 60.9053 492.114 57.651 490.125 55.6623C488.136 53.6736 484.792 52.6793 480.091 52.6793C476.385 52.6793 472.588 53.2669 468.701 54.442C464.814 55.5267 460.882 57.2443 456.905 59.5945L452.023 48.0692C454.374 46.442 457.131 45.0409 460.295 43.8658C463.549 42.6002 466.939 41.6511 470.464 41.0183C474.08 40.2952 477.47 39.9336 480.633 39.9336C490.306 39.9336 497.492 42.1935 502.193 46.7132C506.893 51.1426 509.243 58.0578 509.243 67.4589V107.594H493.379V97.0181C491.842 100.724 489.402 103.662 486.057 105.832C482.713 107.911 478.735 108.95 474.125 108.95ZM477.65 97.2893C482.08 97.2893 485.741 95.7526 488.633 92.6792C491.616 89.6057 493.108 85.7187 493.108 81.0182V78.0351H488.498C480.001 78.0351 474.08 78.7131 470.735 80.069C467.481 81.3346 465.854 83.6848 465.854 87.1198C465.854 90.1029 466.893 92.5436 468.972 94.4419C471.052 96.3402 473.944 97.2893 477.65 97.2893Z" fill="#ffffff"/>
<path d="M432.048 108.949C424.183 108.949 418.353 106.825 414.556 102.576C410.85 98.237 408.997 91.9093 408.997 83.593V12H425.946V82.7794C425.946 90.915 429.381 94.9827 436.251 94.9827C437.246 94.9827 438.24 94.9375 439.234 94.8471C440.229 94.7567 441.178 94.576 442.082 94.3048L441.81 107.728C438.556 108.542 435.302 108.949 432.048 108.949Z" fill="#ffffff"/>
<path d="M356.675 108.949C351.884 108.949 347.59 108.045 343.793 106.237C340.087 104.339 337.149 101.808 334.98 98.6443C332.901 95.4804 331.861 91.9098 331.861 87.9324C331.861 83.0511 333.127 79.2093 335.658 76.407C338.189 73.5144 342.302 71.4353 347.997 70.1698C353.692 68.9043 361.33 68.2715 370.912 68.2715H375.658V65.424C375.658 60.9043 374.663 57.6501 372.675 55.6614C370.686 53.6727 367.341 52.6783 362.641 52.6783C358.935 52.6783 355.138 53.2659 351.251 54.441C347.364 55.5258 343.432 57.2433 339.455 59.5936L334.573 48.0682C336.923 46.4411 339.681 45.0399 342.844 43.8648C346.099 42.5993 349.488 41.6501 353.014 41.0174C356.63 40.2942 360.019 39.9326 363.183 39.9326C372.856 39.9326 380.042 42.1925 384.742 46.7122C389.443 51.1416 391.793 58.0568 391.793 67.4579V107.593H375.929V97.0171C374.392 100.723 371.952 103.661 368.607 105.831C365.262 107.91 361.285 108.949 356.675 108.949ZM360.2 97.2883C364.63 97.2883 368.291 95.7516 371.183 92.6782C374.166 89.6047 375.658 85.7177 375.658 81.0172V78.0342H371.048C362.55 78.0342 356.63 78.7121 353.285 80.0681C350.031 81.3336 348.404 83.6839 348.404 87.1189C348.404 90.1019 349.443 92.5426 351.522 94.4409C353.601 96.3392 356.494 97.2883 360.2 97.2883Z" fill="#ffffff"/>
<path d="M313.179 108.949C295.642 108.949 286.874 100.272 286.874 82.9157V54.0344H274.128V41.2887H286.874V21.4922H303.823V41.2887H323.89V54.0344H303.823V81.9665C303.823 86.3055 304.772 89.5597 306.67 91.7292C308.568 93.8987 311.642 94.9834 315.89 94.9834C317.156 94.9834 318.467 94.8478 319.823 94.5767C321.179 94.2151 322.58 93.8535 324.026 93.4919L326.602 105.966C324.975 106.87 322.896 107.594 320.365 108.136C317.924 108.678 315.529 108.949 313.179 108.949Z" fill="#ffffff"/>
<path d="M175.213 107.593L218.467 12H232.704L275.958 107.593H258.331L248.84 85.4912H202.196L192.84 107.593H175.213ZM225.382 30.8474L208.162 71.6608H242.874L225.653 30.8474H225.382Z" fill="#ffffff"/>
<defs>
<filter id="filter0_dddd_48_788" x="7.55775" y="43.7859" width="136.961" height="110.893" filterUnits="userSpaceOnUse" color-interpolation-filters="sRGB">
<feFlood flood-opacity="0" result="BackgroundImageFix"/>
<feColorMatrix in="SourceAlpha" type="matrix" values="0 0 0 0 0 0 0 0 0 0 0 0 0 0 0 0 0 0 127 0" result="hardAlpha"/>
<feOffset dy="1.92907"/>
<feGaussianBlur stdDeviation="2.1702"/>
<feColorMatrix type="matrix" values="0 0 0 0 0 0 0 0 0 0 0 0 0 0 0 0 0 0 0.1 0"/>
<feBlend mode="normal" in2="BackgroundImageFix" result="effect1_dropShadow_48_788"/>
<feColorMatrix in="SourceAlpha" type="matrix" values="0 0 0 0 0 0 0 0 0 0 0 0 0 0 0 0 0 0 127 0" result="hardAlpha"/>
<feOffset dy="7.71627"/>
<feGaussianBlur stdDeviation="3.85813"/>
<feColorMatrix type="matrix" values="0 0 0 0 0 0 0 0 0 0 0 0 0 0 0 0 0 0 0.09 0"/>
<feBlend mode="normal" in2="effect1_dropShadow_48_788" result="effect2_dropShadow_48_788"/>
<feColorMatrix in="SourceAlpha" type="matrix" values="0 0 0 0 0 0 0 0 0 0 0 0 0 0 0 0 0 0 127 0" result="hardAlpha"/>
<feOffset dy="17.8439"/>
<feGaussianBlur stdDeviation="5.30493"/>
<feColorMatrix type="matrix" values="0 0 0 0 0 0 0 0 0 0 0 0 0 0 0 0 0 0 0.05 0"/>
<feBlend mode="normal" in2="effect2_dropShadow_48_788" result="effect3_dropShadow_48_788"/>
<feColorMatrix in="SourceAlpha" type="matrix" values="0 0 0 0 0 0 0 0 0 0 0 0 0 0 0 0 0 0 127 0" result="hardAlpha"/>
<feOffset dy="31.3473"/>
<feGaussianBlur stdDeviation="6.26947"/>
<feColorMatrix type="matrix" values="0 0 0 0 0 0 0 0 0 0 0 0 0 0 0 0 0 0 0.01 0"/>
<feBlend mode="normal" in2="effect3_dropShadow_48_788" result="effect4_dropShadow_48_788"/>
<feBlend mode="normal" in="SourceGraphic" in2="effect4_dropShadow_48_788" result="shape"/>
</filter>
<filter id="filter1_dddd_48_788" x="15.7793" y="25.3896" width="120.518" height="97.8799" filterUnits="userSpaceOnUse" color-interpolation-filters="sRGB">
<feFlood flood-opacity="0" result="BackgroundImageFix"/>
<feColorMatrix in="SourceAlpha" type="matrix" values="0 0 0 0 0 0 0 0 0 0 0 0 0 0 0 0 0 0 127 0" result="hardAlpha"/>
<feOffset dy="2"/>
<feGaussianBlur stdDeviation="2"/>
<feColorMatrix type="matrix" values="0 0 0 0 0 0 0 0 0 0 0 0 0 0 0 0 0 0 0.1 0"/>
<feBlend mode="normal" in2="BackgroundImageFix" result="effect1_dropShadow_48_788"/>
<feColorMatrix in="SourceAlpha" type="matrix" values="0 0 0 0 0 0 0 0 0 0 0 0 0 0 0 0 0 0 127 0" result="hardAlpha"/>
<feOffset dy="7"/>
<feGaussianBlur stdDeviation="3.5"/>
<feColorMatrix type="matrix" values="0 0 0 0 0 0 0 0 0 0 0 0 0 0 0 0 0 0 0.09 0"/>
<feBlend mode="normal" in2="effect1_dropShadow_48_788" result="effect2_dropShadow_48_788"/>
<feColorMatrix in="SourceAlpha" type="matrix" values="0 0 0 0 0 0 0 0 0 0 0 0 0 0 0 0 0 0 127 0" result="hardAlpha"/>
<feOffset dy="16"/>
<feGaussianBlur stdDeviation="4.5"/>
<feColorMatrix type="matrix" values="0 0 0 0 0 0 0 0 0 0 0 0 0 0 0 0 0 0 0.05 0"/>
<feBlend mode="normal" in2="effect2_dropShadow_48_788" result="effect3_dropShadow_48_788"/>
<feColorMatrix in="SourceAlpha" type="matrix" values="0 0 0 0 0 0 0 0 0 0 0 0 0 0 0 0 0 0 127 0" result="hardAlpha"/>
<feOffset dy="28"/>
<feGaussianBlur stdDeviation="5.5"/>
<feColorMatrix type="matrix" values="0 0 0 0 0 0 0 0 0 0 0 0 0 0 0 0 0 0 0.01 0"/>
<feBlend mode="normal" in2="effect3_dropShadow_48_788" result="effect4_dropShadow_48_788"/>
<feBlend mode="normal" in="SourceGraphic" in2="effect4_dropShadow_48_788" result="shape"/>
</filter>
<filter id="filter2_dddd_48_788" x="39.8594" y="0" width="75" height="90" filterUnits="userSpaceOnUse" color-interpolation-filters="sRGB">
<feFlood flood-opacity="0" result="BackgroundImageFix"/>
<feColorMatrix in="SourceAlpha" type="matrix" values="0 0 0 0 0 0 0 0 0 0 0 0 0 0 0 0 0 0 127 0" result="hardAlpha"/>
<feOffset dy="3"/>
<feGaussianBlur stdDeviation="1.5"/>
<feColorMatrix type="matrix" values="0 0 0 0 0 0 0 0 0 0 0 0 0 0 0 0 0 0 0.1 0"/>
<feBlend mode="normal" in2="BackgroundImageFix" result="effect1_dropShadow_48_788"/>
<feColorMatrix in="SourceAlpha" type="matrix" values="0 0 0 0 0 0 0 0 0 0 0 0 0 0 0 0 0 0 127 0" result="hardAlpha"/>
<feOffset dy="6"/>
<feGaussianBlur stdDeviation="3"/>
<feColorMatrix type="matrix" values="0 0 0 0 0 0 0 0 0 0 0 0 0 0 0 0 0 0 0.09 0"/>
<feBlend mode="normal" in2="effect1_dropShadow_48_788" result="effect2_dropShadow_48_788"/>
<feColorMatrix in="SourceAlpha" type="matrix" values="0 0 0 0 0 0 0 0 0 0 0 0 0 0 0 0 0 0 127 0" result="hardAlpha"/>
<feOffset dy="15"/>
<feGaussianBlur stdDeviation="4.5"/>
<feColorMatrix type="matrix" values="0 0 0 0 0 0 0 0 0 0 0 0 0 0 0 0 0 0 0.05 0"/>
<feBlend mode="normal" in2="effect2_dropShadow_48_788" result="effect3_dropShadow_48_788"/>
<feColorMatrix in="SourceAlpha" type="matrix" values="0 0 0 0 0 0 0 0 0 0 0 0 0 0 0 0 0 0 127 0" result="hardAlpha"/>
<feOffset dy="24"/>
<feGaussianBlur stdDeviation="4.5"/>
<feColorMatrix type="matrix" values="0 0 0 0 0 0 0 0 0 0 0 0 0 0 0 0 0 0 0.01 0"/>
<feBlend mode="normal" in2="effect3_dropShadow_48_788" result="effect4_dropShadow_48_788"/>
<feBlend mode="normal" in="SourceGraphic" in2="effect4_dropShadow_48_788" result="shape"/>
</filter>
</defs>
</svg>
