<svg width="798" height="189" xmlns="http://www.w3.org/2000/svg" xmlns:xlink="http://www.w3.org/1999/xlink" overflow="hidden"><defs><clipPath id="clip0"><rect x="0" y="0" width="798" height="189"/></clipPath></defs><g clip-path="url(#clip0)"><rect x="0" y="0" width="798" height="188.882" fill="#FFFFFF" fill-opacity="0"/><path d="M177.366 87.9449 194.505 97.7892C201.832 101.988 201.832 108.805 194.505 113.017L139.259 144.749C131.932 148.96 120.068 148.96 112.741 144.749L57.4955 113.017C50.1682 108.818 50.1682 102.001 57.4955 97.7892L74.6344 87.9449 112.741 109.845C120.068 114.057 131.932 114.057 139.259 109.845Z" fill="#00AB9C" fill-rule="evenodd"/><path d="M57.0055 119.015C57.0055 119.015 44.9542 124.57 40.2927 127.669 37.1143 129.783 29.0227 135.942 40.2927 142.862 51.5625 149.782 94.4967 175.218 113.302 184.659 119.222 187.627 128.306 191.291 139.854 184.659 151.389 178.028 195.383 154.549 212.864 142.862 216.042 140.735 223.776 134.419 212.864 127.669 201.951 120.919 193.953 117.426 193.953 117.426" stroke="#FFFFFF" stroke-width="1.32209" stroke-miterlimit="8" fill="none" fill-rule="evenodd"/><path d="M77.406 65.5923C77.406 65.5923 68.4193 70.0296 65.6044 71.8152 63.3049 73.2677 57.6485 77.7583 65.6044 82.7287 73.5602 87.699 103.904 105.968 117.186 112.751 121.375 114.883 127.785 117.521 135.939 112.751 144.093 107.98 175.163 91.1103 187.52 82.7287 189.767 81.2096 195.225 76.6656 187.52 71.8152 179.815 66.9648 174.159 64.4596 174.159 64.4596" stroke="#FFFFFF" stroke-width="1.32209" stroke-miterlimit="8" fill="none" fill-rule="evenodd"/><path d="M164 38.9755C164 59.9493 146.987 76.9518 126 76.9518 105.013 76.9518 88 59.9493 88 38.9755 88 18.0019 105.013 0.99937 126 0.99937 146.987 0.99937 164 18.0019 164 38.9755Z" fill="#00AB9C" fill-rule="evenodd"/><path d="M335.932 125.488 323.007 88.2334 302.693 146.908 280 146.908 314.601 46.9706 331.399 46.9706 366 146.908 319.412 146.908 312.235 125.488 335.932 125.488Z" fill="#FFFFFF" fill-rule="evenodd"/><path d="M382.378 68.3642 410.878 68.3642 410.878 89.784 382.378 89.784 382.378 111.204C382.378 115.159 383.769 118.523 386.549 121.309 389.33 124.095 392.687 125.488 396.635 125.488L410.878 125.488 418 146.908 396.622 146.908C386.785 146.908 378.391 143.426 371.44 136.448 364.476 129.483 361 121.06 361 111.217L361 46.9706 382.378 46.9706 382.378 68.3904Z" fill="#FFFFFF" fill-rule="evenodd"/><path d="M490 107.433 490 146.908 468.452 139.734 468.452 107.446C468.452 102.465 466.707 98.2377 463.217 94.7367 459.727 91.2489 455.484 89.5049 450.5 89.5049 445.516 89.5049 441.286 91.2489 437.796 94.7367 434.306 98.2245 432.561 102.465 432.561 107.446 432.561 112.427 434.306 116.654 437.796 120.142 441.286 123.63 445.529 125.374 450.5 125.374L464.857 125.374 457.678 146.908 450.5 146.908C439.581 146.908 430.274 143.05 422.567 135.348 414.86 127.646 411 118.345 411 107.433 411 96.5202 414.86 87.2194 422.567 79.5173 430.274 71.8151 439.581 67.9574 450.5 67.9574 461.419 67.9574 470.726 71.8151 478.433 79.5173 486.14 87.2194 490 96.5202 490 107.433Z" fill="#FFFFFF" fill-rule="evenodd"/><path d="M518 146.908 497 146.908 497 0 518 0 518 146.908Z" fill="#FFFFFF" fill-rule="evenodd"/><path d="M603 107.433 603 146.908 581.452 139.734 581.452 107.446C581.452 102.465 579.707 98.2377 576.217 94.7367 572.727 91.2489 568.484 89.5049 563.5 89.5049 558.516 89.5049 554.286 91.2489 550.796 94.7367 547.306 98.2245 545.561 102.465 545.561 107.446 545.561 112.427 547.306 116.654 550.796 120.142 554.286 123.63 558.529 125.374 563.5 125.374L577.856 125.374 570.678 146.908 563.5 146.908C552.581 146.908 543.274 143.05 535.567 135.348 527.86 127.646 524 118.345 524 107.433 524 96.5202 527.86 87.2194 535.567 79.5173 543.274 71.8151 552.581 67.9574 563.5 67.9574 574.419 67.9574 583.726 71.8151 591.433 79.5173 599.14 87.2194 603 96.5202 603 107.433Z" fill="#FFFFFF" fill-rule="evenodd"/><path d="M608 111.365 608 68.3533 629.597 68.3533 629.597 111.365C629.597 115.338 631.002 118.716 633.811 121.514 636.62 124.312 640.012 125.711 644 125.711 647.988 125.711 651.38 124.312 654.189 121.514 656.998 118.716 658.403 115.338 658.403 111.365L658.403 67.9574 680 67.9574 680 140.044C680 149.943 676.489 158.389 669.453 165.384 662.417 172.379 653.937 175.89 644.013 175.89L622.429 175.89 629.624 154.377 644.013 154.377C648.002 154.377 651.407 152.965 654.229 150.154 655.859 148.531 657.011 146.683 657.687 144.637 653.46 146.353 648.902 147.224 644.013 147.224 634.076 147.224 625.596 143.727 618.573 136.718 611.538 129.724 608.026 121.264 608.026 111.378Z" fill="#FFAB00" fill-rule="evenodd"/><path d="M764 107.433 764 146.908 742.452 139.734 742.452 107.446C742.452 102.465 740.707 98.2377 737.217 94.7367 733.727 91.2489 729.484 89.5049 724.5 89.5049 719.516 89.5049 715.286 91.2489 711.796 94.7367 708.306 98.2245 706.561 102.465 706.561 107.446 706.561 112.427 708.306 116.654 711.796 120.142 715.286 123.63 719.529 125.374 724.5 125.374L738.856 125.374 731.678 146.908 724.5 146.908C713.581 146.908 704.274 143.05 696.567 135.348 688.86 127.646 685 118.345 685 107.433 685 96.5202 688.86 87.2194 696.567 79.5173 704.274 71.8151 713.581 67.9574 724.5 67.9574 735.419 67.9574 744.726 71.8151 752.433 79.5173 760.14 87.2194 764 96.5202 764 107.433Z" fill="#FFFFFF" fill-rule="evenodd"/></g></svg>