<svg width="478" height="120" viewBox="0 0 478 120" fill="none" xmlns="http://www.w3.org/2000/svg">
<path d="M441.937 96.6173C437.146 96.6173 432.852 95.7133 429.055 93.9054C425.349 92.0071 422.411 89.4761 420.242 86.3122C418.163 83.1484 417.123 79.5778 417.123 75.6004C417.123 70.7191 418.389 66.8773 420.92 64.075C423.451 61.1824 427.564 59.1033 433.259 57.8378C438.953 56.5722 446.592 55.9395 456.174 55.9395H460.92V53.092C460.92 48.5722 459.925 45.318 457.936 43.3293C455.948 41.3406 452.603 40.3463 447.903 40.3463C444.196 40.3463 440.4 40.9339 436.513 42.109C432.626 43.1937 428.694 44.9112 424.716 47.2615L419.835 35.7361C422.185 34.109 424.942 32.7079 428.106 31.5328C431.36 30.2672 434.75 29.3181 438.276 28.6853C441.891 27.9622 445.281 27.6006 448.445 27.6006C458.117 27.6006 465.304 29.8605 470.004 34.3802C474.705 38.8096 477.055 45.7248 477.055 55.1259V95.2613H461.191V84.6851C459.654 88.3913 457.213 91.3291 453.869 93.4986C450.524 95.5777 446.547 96.6173 441.937 96.6173ZM445.462 84.9563C449.891 84.9563 453.552 83.4196 456.445 80.3461C459.428 77.2727 460.92 73.3857 460.92 68.6852V65.7021H456.309C447.812 65.7021 441.891 66.3801 438.547 67.736C435.292 69.0016 433.665 71.3518 433.665 74.7868C433.665 77.7699 434.705 80.2106 436.784 82.1089C438.863 84.0071 441.756 84.9563 445.462 84.9563Z" fill="#000938"/>
<path d="M356.61 120L368.813 92.8811L341.288 29.2881H359.322L377.898 75.6608L396.881 29.2881H413.966L374.102 120H356.61Z" fill="#000938"/>
<path d="M298.982 96.9503C294.191 96.9503 289.898 96.0463 286.101 94.2384C282.395 92.3401 279.457 89.8091 277.288 86.6452C275.208 83.4814 274.169 79.9108 274.169 75.9334C274.169 71.0521 275.434 67.2103 277.966 64.408C280.497 61.5154 284.61 59.4363 290.304 58.1708C295.999 56.9052 303.638 56.2725 313.22 56.2725H317.965V53.425C317.965 48.9053 316.971 45.651 314.982 43.6623C312.994 41.6736 309.649 40.6793 304.948 40.6793C301.242 40.6793 297.446 41.2669 293.559 42.442C289.672 43.5267 285.74 45.2443 281.762 47.5945L276.881 36.0692C279.231 34.442 281.988 33.0409 285.152 31.8658C288.406 30.6002 291.796 29.6511 295.321 29.0183C298.937 28.2952 302.327 27.9336 305.491 27.9336C315.163 27.9336 322.35 30.1935 327.05 34.7132C331.751 39.1426 334.101 46.0578 334.101 55.4589V95.5943H318.237V85.0181C316.7 88.7243 314.259 91.6622 310.915 93.8316C307.57 95.9107 303.593 96.9503 298.982 96.9503ZM302.508 85.2893C306.937 85.2893 310.598 83.7526 313.491 80.6792C316.474 77.6057 317.965 73.7187 317.965 69.0182V66.0351H313.355C304.858 66.0351 298.937 66.7131 295.593 68.069C292.338 69.3346 290.711 71.6848 290.711 75.1198C290.711 78.1029 291.751 80.5436 293.83 82.4419C295.909 84.3402 298.802 85.2893 302.508 85.2893Z" fill="#000938"/>
<path d="M256.905 96.9488C249.041 96.9488 243.21 94.8245 239.414 90.5759C235.708 86.237 233.854 79.9093 233.854 71.593V0H250.804V70.7794C250.804 78.915 254.239 82.9827 261.109 82.9827C262.103 82.9827 263.097 82.9375 264.092 82.8471C265.086 82.7567 266.035 82.576 266.939 82.3048L266.668 95.7284C263.414 96.542 260.159 96.9488 256.905 96.9488Z" fill="#000938"/>
<path d="M181.532 96.9493C176.741 96.9493 172.448 96.0453 168.651 94.2374C164.945 92.3391 162.007 89.8081 159.837 86.6443C157.758 83.4804 156.719 79.9098 156.719 75.9324C156.719 71.0511 157.984 67.2093 160.515 64.407C163.046 61.5144 167.159 59.4353 172.854 58.1698C178.549 56.9043 186.188 56.2715 195.769 56.2715H200.515V53.424C200.515 48.9043 199.521 45.6501 197.532 43.6614C195.543 41.6727 192.199 40.6783 187.498 40.6783C183.792 40.6783 179.996 41.2659 176.109 42.441C172.222 43.5258 168.289 45.2433 164.312 47.5936L159.431 36.0682C161.781 34.4411 164.538 33.0399 167.702 31.8648C170.956 30.5993 174.346 29.6501 177.871 29.0174C181.487 28.2942 184.877 27.9326 188.041 27.9326C197.713 27.9326 204.899 30.1925 209.6 34.7122C214.3 39.1416 216.651 46.0568 216.651 55.4579V95.5934H200.786V85.0171C199.25 88.7233 196.809 91.6612 193.464 93.8307C190.12 95.9097 186.142 96.9493 181.532 96.9493ZM185.058 85.2883C189.487 85.2883 193.148 83.7516 196.041 80.6782C199.024 77.6047 200.515 73.7177 200.515 69.0172V66.0342H195.905C187.408 66.0342 181.487 66.7121 178.142 68.0681C174.888 69.3336 173.261 71.6839 173.261 75.1189C173.261 78.1019 174.301 80.5426 176.38 82.4409C178.459 84.3392 181.351 85.2883 185.058 85.2883Z" fill="#000938"/>
<path d="M138.036 96.9495C120.499 96.9495 111.731 88.2716 111.731 70.9157V42.0344H98.9854V29.2887H111.731V9.49219H128.68V29.2887H148.748V42.0344H128.68V69.9665C128.68 74.3055 129.629 77.5597 131.528 79.7292C133.426 81.8987 136.499 82.9834 140.748 82.9834C142.013 82.9834 143.324 82.8478 144.68 82.5767C146.036 82.2151 147.437 81.8535 148.883 81.4919L151.46 93.9664C149.833 94.8704 147.754 95.5936 145.222 96.1359C142.782 96.6783 140.386 96.9495 138.036 96.9495Z" fill="#000938"/>
<path d="M0.0703125 95.5929L43.3244 0H57.5616L100.816 95.5929H83.1886L73.6972 73.4912H27.0533L17.6974 95.5929H0.0703125ZM50.2396 18.8474L33.0193 59.6608H67.7311L50.5108 18.8474H50.2396Z" fill="#000938"/>
</svg>
