<svg width="650" height="650" xmlns="http://www.w3.org/2000/svg" xmlns:xlink="http://www.w3.org/1999/xlink" xml:space="preserve" overflow="hidden"><defs><clipPath id="clip0"><rect x="0" y="0" width="650" height="650"/></clipPath></defs><g clip-path="url(#clip0)"><path d="M0 325C-4.13768e-14 145.507 145.507-4.13768e-14 325-8.27537e-14 504.493-1.65507e-13 650 145.507 650 325 650 504.493 504.493 650 325 650 145.507 650-2.06884e-13 504.493 0 325Z" fill="#FFFFFF" fill-rule="evenodd" fill-opacity="0.25098"/><g><g><g><path d="M352.5 333.594C352.5 341.156 346.312 347.344 338.75 347.344L325 347.344C317.437 347.344 311.25 341.156 311.25 333.594L311.25 326.719 194.375 326.719 194.375 422.969C194.375 430.531 200.562 436.719 208.125 436.719L455.625 436.719C463.187 436.719 469.375 430.531 469.375 422.969L469.375 326.719 352.5 326.719 352.5 333.594Z" fill="#FFFFFF"/><path d="M455.625 244.219 386.875 244.219 386.875 221.875C386.875 208.469 376.219 197.812 362.812 197.812L300.937 197.812C287.531 197.812 276.875 208.469 276.875 221.875L276.875 244.219 208.125 244.219C200.562 244.219 194.375 250.406 194.375 257.969L194.375 312.969 311.25 312.969 311.25 306.094 352.5 306.094 352.5 312.969 469.375 312.969 469.375 257.969C469.375 250.406 463.187 244.219 455.625 244.219M297.5 244.219 297.5 221.875C297.5 219.812 298.875 218.437 300.937 218.437L362.812 218.437C364.875 218.437 366.25 219.812 366.25 221.875L366.25 244.219 297.5 244.219Z" fill="#FFFFFF"/></g></g></g></g></svg>