<svg width="142" height="142" viewBox="0 0 142 142" fill="none" xmlns="http://www.w3.org/2000/svg">
<rect width="142" height="142" rx="71" fill="#315AFE"/>
<rect x="38.7273" y="38.7273" width="64.5455" height="64.5455" rx="32.2727" fill="white"/>
<path d="M62.3792 79.2158L79.622 61.9729M79.622 61.9729L66.6899 61.9729M79.622 61.9729V74.905" stroke="#315AFE" stroke-width="1.62286" stroke-linecap="round" stroke-linejoin="round"/>
<path d="M75.0048 22.0378L75.8439 12.4668L71.9707 12.1273L72.1208 10.4148L81.9158 11.2735L81.7657 12.986L77.8925 12.6464L77.0534 22.2174L75.0048 22.0378Z" fill="white"/>
<path d="M84.037 23.8205C83.2518 23.6058 82.6137 23.2593 82.1227 22.7808C81.6317 22.3023 81.3066 21.7248 81.1474 21.0484C80.9909 20.3615 81.0229 19.6152 81.2433 18.8094C81.4636 18.0035 81.8145 17.3499 82.2958 16.8486C82.7771 16.3472 83.3508 16.0155 84.0169 15.8535C84.6831 15.6914 85.4088 15.7177 86.194 15.9324C86.9792 16.1471 87.6173 16.4937 88.1083 16.9722C88.5993 17.4506 88.9244 18.0281 89.0836 18.7046C89.2429 19.3811 89.2123 20.1222 88.992 20.9281C88.7716 21.7339 88.4194 22.3927 87.9352 22.9044C87.4539 23.4057 86.8802 23.7374 86.214 23.8995C85.5479 24.0616 84.8222 24.0352 84.037 23.8205ZM84.4396 22.3483C85.0182 22.5065 85.5396 22.427 86.0039 22.1098C86.471 21.7822 86.8161 21.2104 87.0393 20.3942C87.2653 19.5676 87.2578 18.9049 87.0167 18.4059C86.7784 17.8966 86.37 17.5628 85.7914 17.4046C85.2128 17.2464 84.6914 17.3259 84.2271 17.6432C83.7657 17.95 83.4219 18.5167 83.1959 19.3433C82.9728 20.1595 82.9789 20.8274 83.2143 21.347C83.4526 21.8563 83.861 22.1901 84.4396 22.3483Z" fill="white"/>
<path d="M91.8899 26.7637C91.2742 26.4623 90.8037 26.0472 90.4783 25.5182C90.1625 24.9939 90.009 24.3941 90.0177 23.7186C90.0311 23.0335 90.2215 22.3157 90.5888 21.5654C90.9608 20.8054 91.4086 20.2196 91.932 19.808C92.4602 19.3868 93.0282 19.1402 93.6359 19.068C94.2533 19.0005 94.8698 19.1175 95.4855 19.4189C96.0724 19.7061 96.5116 20.1 96.8032 20.6005C97.1044 21.1058 97.2166 21.6317 97.1398 22.1785L96.9811 22.1008L99.2063 17.5553L101.01 18.4383L96.0299 28.6114L94.2694 27.7496L95.004 26.2489L95.1339 26.3125C94.7447 26.7421 94.2559 26.9977 93.6674 27.0793C93.0788 27.1609 92.4864 27.0557 91.8899 26.7637ZM93.0661 25.6401C93.6048 25.9038 94.1319 25.9233 94.6473 25.6987C95.1675 25.4644 95.6136 24.9672 95.9856 24.2072C96.3624 23.4376 96.4791 22.7852 96.3356 22.2499C96.1969 21.705 95.8582 21.3007 95.3195 21.037C94.7808 20.7732 94.2537 20.7537 93.7382 20.9784C93.2275 21.1935 92.7837 21.6858 92.407 22.4554C92.0349 23.2154 91.9159 23.8726 92.0499 24.4272C92.1886 24.9721 92.5273 25.3764 93.0661 25.6401Z" fill="white"/>
<path d="M100.32 31.8954C99.6679 31.4077 99.2013 30.8513 98.92 30.2261C98.6387 29.6009 98.5479 28.9445 98.6479 28.2567C98.7542 27.5604 99.0576 26.8778 99.5581 26.2089C100.059 25.5399 100.625 25.0605 101.256 24.7706C101.888 24.4807 102.543 24.3825 103.223 24.476C103.902 24.5695 104.567 24.8601 105.219 25.3478C105.871 25.8355 106.337 26.3919 106.619 27.0171C106.9 27.6423 106.991 28.2987 106.891 28.9865C106.791 29.6742 106.491 30.3526 105.99 31.0215C105.49 31.6904 104.92 32.1741 104.282 32.4726C103.651 32.7625 102.995 32.8607 102.316 32.7672C101.637 32.6737 100.971 32.3831 100.32 31.8954ZM101.234 30.6734C101.714 31.0327 102.229 31.1499 102.777 31.0251C103.332 30.8916 103.862 30.4862 104.369 29.8087C104.883 29.1226 105.119 28.5033 105.077 27.9506C105.042 27.3894 104.785 26.9292 104.305 26.5698C103.824 26.2105 103.31 26.0932 102.762 26.2181C102.22 26.3344 101.692 26.7356 101.179 27.4216C100.672 28.0991 100.433 28.7228 100.461 29.2925C100.496 29.8538 100.754 30.314 101.234 30.6734Z" fill="white"/>
<path d="M109.523 40.9722C108.935 40.2494 108.694 39.5547 108.8 38.8881C108.922 38.223 109.365 37.5794 110.129 36.9575L116.709 31.6034L117.977 33.1611L111.472 38.4543C111.231 38.6504 111.05 38.8526 110.93 39.0611C110.824 39.271 110.788 39.4804 110.82 39.6893C110.851 39.8981 110.952 40.1064 111.121 40.3141C111.195 40.4055 111.274 40.4935 111.356 40.5781C111.439 40.6627 111.527 40.7364 111.619 40.7992L110.365 41.7782C110.21 41.6557 110.064 41.5264 109.925 41.3904C109.785 41.2695 109.651 41.1301 109.523 40.9722Z" fill="white"/>
<path d="M113.014 46.1464C112.597 45.4469 112.378 44.7546 112.357 44.0693C112.335 43.3841 112.502 42.7427 112.857 42.1451C113.22 41.542 113.761 41.0267 114.479 40.5994C115.197 40.172 115.903 39.9448 116.598 39.9178C117.292 39.8908 117.935 40.05 118.528 40.3955C119.12 40.7411 119.624 41.2635 120.04 41.963C120.457 42.6624 120.676 43.3548 120.697 44.04C120.719 44.7252 120.552 45.3667 120.198 45.9643C119.843 46.5619 119.307 47.0744 118.589 47.5018C117.871 47.9291 117.16 48.1591 116.457 48.1916C115.762 48.2186 115.119 48.0593 114.527 47.7138C113.934 47.3683 113.43 46.8458 113.014 46.1464ZM114.325 45.3656C114.632 45.8809 115.063 46.1855 115.617 46.2792C116.181 46.3675 116.826 46.1952 117.553 45.7624C118.289 45.324 118.744 44.8415 118.917 44.315C119.098 43.7829 119.036 43.2591 118.729 42.7438C118.422 42.2284 117.992 41.9238 117.437 41.8301C116.892 41.7309 116.251 41.9004 115.515 42.3388C114.788 42.7716 114.329 43.2568 114.138 43.7944C113.956 44.3265 114.018 44.8502 114.325 45.3656Z" fill="white"/>
<path d="M116.09 61.502L120.451 60.3981L120.494 60.5694C119.944 60.5321 119.447 60.3153 119.004 59.9192C118.574 59.5308 118.279 59.0199 118.119 58.3865C117.951 57.722 117.963 57.0946 118.156 56.5043C118.352 55.9244 118.71 55.4194 119.231 54.9893C119.762 54.5565 120.433 54.2376 121.243 54.0325C122.063 53.8249 122.799 53.7877 123.452 53.9208C124.115 54.0514 124.67 54.3251 125.118 54.742C125.569 55.1693 125.878 55.7152 126.047 56.3798C126.209 57.0235 126.19 57.625 125.99 58.1841C125.789 58.7432 125.443 59.1677 124.953 59.4575L124.917 59.3173L126.522 58.9112L127.003 60.8113L116.583 63.4489L116.09 61.502ZM119.736 58.5571C119.884 59.1386 120.21 59.5533 120.714 59.8012C121.229 60.0464 121.897 60.0652 122.717 59.8576C123.548 59.6473 124.121 59.3144 124.437 58.8589C124.763 58.4007 124.852 57.8809 124.705 57.2994C124.558 56.718 124.232 56.3033 123.727 56.0554C123.233 55.8049 122.57 55.7847 121.74 55.995C120.919 56.2026 120.341 56.5369 120.005 56.9977C119.679 57.4558 119.589 57.9756 119.736 58.5571Z" fill="white"/>
<path d="M119.61 67.3887C119.571 66.7365 119.656 66.1895 119.866 65.7477C120.086 65.3053 120.43 64.9627 120.898 64.7199C121.367 64.4878 121.96 64.3502 122.676 64.3071L127.439 64.0205L127.56 66.0252L122.765 66.3137C122.401 66.3356 122.099 66.402 121.859 66.513C121.62 66.6347 121.447 66.8007 121.342 67.0109C121.237 67.2318 121.195 67.5026 121.214 67.8234C121.236 68.1869 121.335 68.4975 121.511 68.7551C121.699 69.0228 121.947 69.2225 122.256 69.3541C122.575 69.4959 122.938 69.5545 123.345 69.5301L127.755 69.2647L127.876 71.2694L120.033 71.7412L119.916 69.7847L121.551 69.6862L121.565 69.9108C120.974 69.721 120.51 69.4055 120.172 68.9645C119.835 68.5341 119.648 68.0088 119.61 67.3887Z" fill="white"/>
<path d="M119.29 77.5126C119.397 76.6301 119.654 75.8898 120.06 75.2916C120.467 74.6935 120.995 74.2557 121.643 73.9782C122.291 73.7112 123.029 73.628 123.858 73.7283C124.667 73.8261 125.354 74.0765 125.92 74.4795C126.485 74.8931 126.902 75.4129 127.172 76.0389C127.45 76.6768 127.544 77.3733 127.453 78.1282C127.363 78.8726 127.126 79.4913 126.743 79.9843C126.359 80.4774 125.858 80.8321 125.238 81.0484C124.617 81.2754 123.903 81.3399 123.095 81.2422L122.505 81.1707L123.217 75.2852L124.365 75.4242L123.823 79.9061L123.615 79.622C124.338 79.7095 124.91 79.6169 125.331 79.3442C125.763 79.0728 126.015 78.6394 126.087 78.0439C126.141 77.5973 126.081 77.2017 125.907 76.8569C125.743 76.5241 125.479 76.2495 125.117 76.033C124.764 75.8285 124.327 75.6947 123.806 75.6316L123.695 75.6181C123.11 75.5474 122.615 75.5792 122.21 75.7136C121.806 75.8481 121.486 76.0845 121.251 76.4229C121.015 76.7612 120.866 77.1962 120.801 77.7279C120.749 78.1639 120.76 78.6076 120.834 79.059C120.92 79.5117 121.084 79.9361 121.328 80.3324L119.92 80.7285C119.657 80.319 119.469 79.8216 119.356 79.2362C119.244 78.6507 119.222 78.0762 119.29 77.5126Z" fill="white"/>
<path d="M117.313 86.9803L124.539 90.0644L123.769 91.8671L122.321 91.2491L122.391 91.0865C122.82 91.5261 123.071 92.0292 123.144 92.5959C123.222 93.1766 123.137 93.7576 122.889 94.3388C122.641 94.92 122.329 95.3515 121.952 95.6333C121.576 95.9152 121.126 96.0551 120.603 96.0531C120.089 96.0552 119.498 95.9134 118.828 95.6274L114.424 93.748L115.213 91.9009L119.528 93.7425C119.902 93.9023 120.228 93.9834 120.507 93.9858C120.781 93.998 121.014 93.9288 121.207 93.778C121.405 93.6413 121.567 93.4252 121.693 93.1296C121.845 92.775 121.898 92.4311 121.854 92.0978C121.82 91.7688 121.692 91.4694 121.469 91.1997C121.256 90.9342 120.963 90.7216 120.588 90.5618L116.525 88.8274L117.313 86.9803Z" fill="white"/>
<path d="M111.229 98.4452C111.72 97.7044 112.282 97.158 112.914 96.806C113.546 96.454 114.214 96.2995 114.918 96.3424C115.616 96.3943 116.313 96.6511 117.009 97.1129C117.688 97.5629 118.19 98.095 118.515 98.7092C118.834 99.3323 118.974 99.984 118.934 100.664C118.897 101.36 118.668 102.024 118.248 102.658C117.833 103.283 117.344 103.729 116.78 103.998C116.216 104.267 115.609 104.359 114.958 104.274C114.302 104.198 113.634 103.935 112.956 103.485L112.46 103.157L115.738 98.2165L116.702 98.8559L114.206 102.618L114.147 102.271C114.754 102.673 115.307 102.847 115.806 102.793C116.314 102.744 116.734 102.47 117.065 101.97C117.314 101.595 117.438 101.214 117.437 100.828C117.439 100.457 117.327 100.093 117.1 99.7373C116.877 99.3962 116.546 99.0806 116.109 98.7904L116.015 98.7283C115.524 98.4026 115.068 98.2091 114.646 98.1477C114.224 98.0863 113.832 98.154 113.47 98.3509C113.108 98.5478 112.779 98.8694 112.483 99.3157C112.24 99.6816 112.051 100.083 111.915 100.52C111.788 100.963 111.745 101.416 111.785 101.879L110.349 101.602C110.297 101.118 110.353 100.589 110.515 100.015C110.677 99.4416 110.915 98.9182 111.229 98.4452Z" fill="white"/>
<path d="M105.929 104.933C106.491 104.33 107.102 103.919 107.762 103.699C108.429 103.486 109.103 103.47 109.784 103.651C110.464 103.832 111.11 104.208 111.721 104.778C112.332 105.348 112.743 105.959 112.955 106.611C113.175 107.27 113.194 107.932 113.013 108.598C112.839 109.271 112.471 109.909 111.908 110.512C111.565 110.88 111.166 111.189 110.712 111.44C110.259 111.691 109.817 111.835 109.386 111.872L108.77 110.484C109.14 110.449 109.492 110.345 109.827 110.175C110.155 110.012 110.429 109.813 110.648 109.578C111.123 109.069 111.331 108.524 111.273 107.942C111.216 107.376 110.894 106.819 110.306 106.271C109.727 105.73 109.141 105.439 108.548 105.399C107.956 105.374 107.423 105.616 106.948 106.125C106.736 106.352 106.556 106.639 106.409 106.985C106.262 107.331 106.187 107.694 106.185 108.073L104.746 107.543C104.762 107.118 104.878 106.663 105.097 106.178C105.315 105.708 105.593 105.293 105.929 104.933Z" fill="white"/>
<path d="M100.063 110.076C100.768 109.534 101.476 109.199 102.188 109.071C102.9 108.942 103.582 109.012 104.234 109.281C104.878 109.556 105.454 110.025 105.963 110.688C106.459 111.333 106.762 111.999 106.871 112.685C106.971 113.378 106.892 114.04 106.634 114.671C106.373 115.317 105.942 115.871 105.339 116.335C104.744 116.791 104.137 117.056 103.517 117.127C102.896 117.199 102.292 117.089 101.703 116.798C101.107 116.514 100.56 116.049 100.064 115.404L99.702 114.932L104.403 111.32L105.108 112.237L101.528 114.988L101.585 114.64C102.029 115.218 102.495 115.561 102.985 115.671C103.482 115.79 103.967 115.666 104.443 115.301C104.8 115.027 105.04 114.707 105.164 114.341C105.287 113.99 105.298 113.61 105.199 113.2C105.098 112.805 104.888 112.399 104.568 111.983L104.499 111.894C104.14 111.427 103.771 111.096 103.392 110.901C103.013 110.706 102.62 110.643 102.214 110.712C101.807 110.781 101.392 110.979 100.967 111.305C100.619 111.573 100.31 111.892 100.04 112.261C99.7768 112.639 99.5888 113.054 99.4763 113.505L98.2081 112.777C98.316 112.303 98.5396 111.82 98.8787 111.33C99.2179 110.84 99.6125 110.422 100.063 110.076Z" fill="white"/>
<path d="M93.6128 114.138C94.0011 113.933 94.3975 113.766 94.8019 113.638C95.1968 113.514 95.5759 113.429 95.939 113.382C96.3071 113.346 96.6523 113.357 96.9746 113.417L97.1352 114.822C96.8184 114.796 96.4926 114.798 96.1579 114.829C95.8232 114.861 95.4941 114.926 95.1705 115.024C94.8468 115.122 94.5429 115.246 94.2588 115.396C93.8042 115.636 93.5079 115.889 93.3701 116.156C93.2278 116.437 93.2242 116.706 93.3592 116.961C93.4743 117.179 93.6376 117.305 93.8491 117.338C94.0562 117.387 94.3216 117.362 94.6452 117.263L96.2085 116.783C96.8557 116.587 97.4182 116.562 97.8958 116.71C98.3689 116.872 98.738 117.204 99.0031 117.706C99.2431 118.16 99.3276 118.618 99.2564 119.08C99.1757 119.546 98.9603 119.987 98.6101 120.402C98.26 120.817 97.7961 121.177 97.2183 121.482C96.8868 121.657 96.5473 121.794 96.1997 121.893C95.8571 122.001 95.516 122.066 95.1763 122.088C94.8321 122.125 94.5059 122.103 94.1974 122.024L94.0653 120.604C94.3253 120.66 94.6012 120.678 94.893 120.657C95.1898 120.646 95.4811 120.601 95.7668 120.523C96.0481 120.459 96.3071 120.365 96.5439 120.24C97.008 119.995 97.3112 119.732 97.4535 119.45C97.5863 119.174 97.5827 118.904 97.4427 118.639C97.3376 118.44 97.1838 118.309 96.9812 118.246C96.7786 118.184 96.5274 118.201 96.2277 118.299L94.6645 118.779C93.9888 118.991 93.4147 119.027 92.9421 118.889C92.46 118.756 92.0839 118.434 91.8138 117.923C91.5688 117.459 91.4818 116.996 91.553 116.534C91.6242 116.073 91.8349 115.634 92.1851 115.219C92.5402 114.814 93.0161 114.453 93.6128 114.138Z" fill="white"/>
<path d="M92.5738 125.307L93.2594 127.143L91.1522 127.93L90.4666 126.094L92.5738 125.307ZM89.1151 116.411L91.8633 123.771L89.9818 124.474L87.2337 117.114L89.1151 116.411Z" fill="white"/>
<path d="M81.2625 118.664C82.2803 118.407 83.1026 118.47 83.7295 118.854C84.3563 119.237 84.7929 119.917 85.039 120.893L85.8758 124.211L87.3402 123.842L87.7095 125.306L86.2451 125.675L86.8187 127.95L84.8714 128.441L84.2978 126.167L81.9922 126.748L81.6229 125.284L83.9285 124.702L83.1192 121.493C82.9935 120.994 82.7902 120.648 82.5092 120.454C82.2283 120.26 81.8437 120.224 81.3556 120.347C81.2102 120.384 81.0635 120.437 80.9156 120.508C80.7703 120.589 80.6198 120.671 80.4641 120.754L79.8067 119.396C79.9674 119.245 80.1853 119.101 80.4604 118.966C80.7251 118.833 80.9925 118.732 81.2625 118.664Z" fill="white"/>
<path d="M76.1767 119.462C76.7417 119.407 77.2584 119.465 77.7267 119.635C78.1854 119.817 78.5607 120.082 78.8525 120.431C79.1337 120.78 79.2969 121.189 79.3421 121.659C79.3975 122.234 79.2919 122.702 79.0252 123.061C78.7596 123.431 78.2981 123.723 77.6408 123.937C76.9835 124.151 76.0898 124.312 74.9597 124.421L74.1601 124.498L74.0491 123.347L74.8328 123.271C75.3338 123.223 75.7529 123.161 76.09 123.086C76.4281 123.021 76.6996 122.935 76.9046 122.83C77.1 122.735 77.239 122.614 77.3216 122.467C77.3935 122.32 77.4198 122.145 77.4002 121.942C77.3663 121.591 77.216 121.315 76.9492 121.114C76.6824 120.914 76.3305 120.835 75.8934 120.877C75.5415 120.911 75.2401 121.021 74.9889 121.206C74.7282 121.404 74.5317 121.654 74.3995 121.957C74.2673 122.26 74.2192 122.599 74.2551 122.972L74.4323 124.811C74.4837 125.344 74.6379 125.716 74.8951 125.928C75.1522 126.14 75.558 126.22 76.1124 126.166C76.5495 126.124 76.9906 126.012 77.4357 125.829C77.8818 125.657 78.3261 125.41 78.7685 125.087L79.4752 126.391C79.2164 126.61 78.9072 126.806 78.5474 126.981C78.1779 127.167 77.7889 127.318 77.3803 127.432C76.9621 127.559 76.5664 127.64 76.1932 127.676C75.4256 127.75 74.7853 127.693 74.2722 127.506C73.7486 127.319 73.341 126.998 73.0496 126.542C72.7592 126.097 72.578 125.501 72.5061 124.754L72.0501 120.021L73.9212 119.84L74.0814 121.504L73.9535 121.516C73.9921 121.136 74.1101 120.796 74.3073 120.497C74.4948 120.21 74.7467 119.976 75.0628 119.795C75.3789 119.614 75.7502 119.503 76.1767 119.462Z" fill="white"/>
<path d="M67.2112 119.608C67.6492 119.64 68.0738 119.708 68.485 119.813C68.8856 119.917 69.2521 120.046 69.5847 120.199C69.9165 120.362 70.2032 120.555 70.4449 120.777L69.8369 122.053C69.5822 121.863 69.3046 121.693 69.0041 121.542C68.7036 121.391 68.3901 121.272 68.0635 121.184C67.737 121.096 67.4135 121.04 67.093 121.017C66.5802 120.98 66.1948 121.038 65.9367 121.191C65.6672 121.354 65.5219 121.58 65.501 121.868C65.4832 122.114 65.5551 122.307 65.7168 122.447C65.867 122.598 66.1053 122.717 66.4318 122.805L68.0122 123.226C68.6652 123.402 69.1553 123.679 69.4822 124.057C69.7978 124.445 69.935 124.922 69.894 125.489C69.8568 126.001 69.6858 126.435 69.381 126.788C69.0654 127.141 68.6493 127.401 68.1325 127.568C67.6157 127.734 67.0314 127.794 66.3798 127.747C66.0059 127.72 65.6454 127.656 65.2983 127.556C64.9504 127.466 64.6266 127.341 64.3268 127.179C64.0156 127.028 63.7503 126.837 63.5307 126.606L64.1708 125.332C64.3614 125.517 64.5859 125.679 64.8445 125.815C65.1023 125.963 65.3731 126.079 65.6568 126.164C65.9292 126.259 66.1989 126.316 66.466 126.336C66.9894 126.374 67.3859 126.311 67.6555 126.148C67.9143 125.984 68.0546 125.753 68.0763 125.454C68.0925 125.229 68.0313 125.037 67.8926 124.876C67.7539 124.716 67.5315 124.598 67.2256 124.522L65.6452 124.101C64.9602 123.923 64.4537 123.65 64.126 123.283C63.7875 122.914 63.6392 122.442 63.681 121.865C63.7189 121.342 63.8903 120.903 64.1952 120.549C64.5 120.195 64.9109 119.935 65.4277 119.769C65.9437 119.613 66.5382 119.559 67.2112 119.608Z" fill="white"/>
<path d="M61.9327 116.917L62.6097 117.709C62.3323 117.893 62.1095 118.078 61.9413 118.263C61.7753 118.437 61.6449 118.624 61.5503 118.823C61.4451 119.021 61.3704 119.23 61.3262 119.45L60.9925 118.908L62.4732 119.205L62.0338 121.395L59.8285 120.952L60.1193 119.503C60.191 119.146 60.3004 118.818 60.4477 118.52C60.5844 118.22 60.7715 117.941 61.0091 117.682C61.2487 117.414 61.5566 117.159 61.9327 116.917Z" fill="white"/>
<path d="M49.6878 114.93C50.4942 115.304 51.1189 115.777 51.5621 116.349C52.0052 116.921 52.2585 117.558 52.3221 118.26C52.376 118.958 52.227 119.686 51.8753 120.444C51.5326 121.182 51.0821 121.759 50.5239 122.173C49.956 122.582 49.3327 122.818 48.654 122.881C47.9612 122.949 47.2698 122.823 46.58 122.503C45.9 122.187 45.3847 121.771 45.0342 121.254C44.6837 120.737 44.5013 120.151 44.487 119.495C44.463 118.834 44.6223 118.135 44.9651 117.396L45.2153 116.857L50.5928 119.353L50.1058 120.402L46.0108 118.501L46.3454 118.391C46.0387 119.052 45.95 119.625 46.0791 120.11C46.2037 120.604 46.5381 120.978 47.0821 121.23C47.4902 121.42 47.885 121.485 48.2667 121.426C48.6341 121.372 48.9767 121.206 49.2945 120.929C49.598 120.656 49.8603 120.282 50.0813 119.806L50.1286 119.704C50.3766 119.17 50.4992 118.689 50.4964 118.263C50.4936 117.837 50.3676 117.459 50.1184 117.131C49.8693 116.803 49.5018 116.526 49.0161 116.301C48.6177 116.116 48.1923 115.989 47.7399 115.921C47.2829 115.862 46.8284 115.888 46.3764 115.997L46.4345 114.536C46.9053 114.412 47.4365 114.387 48.0281 114.461C48.6196 114.534 49.1729 114.691 49.6878 114.93Z" fill="white"/>
<path d="M45.3416 112.877L40.7994 119.287L39.2001 118.154L40.1104 116.869L40.2546 116.971C39.7341 117.298 39.1893 117.437 38.6201 117.388C38.0359 117.342 37.486 117.136 36.9704 116.771C36.4548 116.405 36.0991 116.009 35.9032 115.581C35.7073 115.154 35.6657 114.685 35.7783 114.174C35.8848 113.671 36.1485 113.123 36.5696 112.529L39.3377 108.622L40.9763 109.784L38.264 113.611C38.0287 113.943 37.8804 114.245 37.8192 114.517C37.7492 114.782 37.7675 115.025 37.8742 115.245C37.9659 115.468 38.1429 115.672 38.4051 115.858C38.7197 116.081 39.0445 116.206 39.3796 116.233C39.7084 116.269 40.0282 116.207 40.3389 116.046C40.6434 115.895 40.9133 115.653 41.1486 115.32L43.703 111.716L45.3416 112.877Z" fill="white"/>
<path d="M32.868 101.599C33.2736 102.111 33.5171 102.608 33.5983 103.09C33.6711 103.579 33.5851 104.057 33.3402 104.524C33.0887 104.983 32.6816 105.435 32.119 105.881L28.3781 108.843L27.1314 107.268L30.8975 104.286C31.183 104.06 31.3924 103.833 31.5257 103.604C31.6523 103.367 31.6986 103.133 31.6647 102.9C31.624 102.659 31.504 102.412 31.3045 102.16C31.0784 101.875 30.8193 101.677 30.5271 101.567C30.2199 101.455 29.9022 101.433 29.5739 101.502C29.2307 101.569 28.8995 101.729 28.5804 101.981L25.1166 104.724L23.8699 103.15L30.0291 98.2724L31.246 99.8091L29.9612 100.826L29.8216 100.65C30.4147 100.467 30.9759 100.46 31.5054 100.628C32.0281 100.788 32.4824 101.112 32.868 101.599Z" fill="white"/>
<path d="M29.0481 96.6884L22.095 100.346L21.1825 98.6112L22.5759 97.8782L22.6582 98.0346C22.0461 98.0904 21.4974 97.9675 21.0121 97.6661C20.5123 97.3602 20.1153 96.9276 19.8211 96.3684C19.5268 95.8091 19.3893 95.2945 19.4083 94.8246C19.4274 94.3547 19.6028 93.9175 19.9346 93.513C20.257 93.1135 20.7404 92.7442 21.385 92.4051L25.6223 90.1761L26.5573 91.9535L22.4053 94.1376C22.0451 94.327 21.7762 94.529 21.5986 94.7435C21.4159 94.9485 21.3224 95.1732 21.3178 95.4176C21.2988 95.6576 21.3641 95.9197 21.5137 96.2041C21.6932 96.5454 21.9261 96.8041 22.2125 96.9802C22.4893 97.1614 22.8025 97.2507 23.1522 97.2483C23.4925 97.2509 23.8427 97.1574 24.2029 96.9679L28.1131 94.911L29.0481 96.6884Z" fill="white"/>
<path d="M23.0514 80.9383C23.1417 81.368 23.1931 81.795 23.2057 82.2192C23.216 82.6329 23.1936 83.0207 23.1383 83.3826C23.0725 83.7466 22.9665 84.0754 22.8202 84.3688L21.4252 84.1366C21.5378 83.8393 21.6251 83.5255 21.687 83.1951C21.7489 82.8647 21.7771 82.5304 21.7717 82.1922C21.7663 81.8541 21.7306 81.5278 21.6645 81.2133C21.5587 80.7102 21.3967 80.3557 21.1783 80.1499C20.9472 79.9358 20.6902 79.8584 20.4072 79.9179C20.1661 79.9686 20.0003 80.091 19.9097 80.2851C19.8065 80.471 19.7576 80.733 19.763 81.0712L19.7948 82.7062C19.8056 83.3825 19.6744 83.93 19.4012 84.3486C19.1153 84.7589 18.6946 85.0225 18.139 85.1392C17.6359 85.245 17.1723 85.2001 16.7481 85.0047C16.3218 84.7988 15.9572 84.4704 15.6545 84.0196C15.3518 83.5689 15.1333 83.0238 14.9989 82.3844C14.9218 82.0175 14.8836 81.6534 14.8843 81.2921C14.8745 80.933 14.9057 80.5871 14.9781 80.2545C15.0378 79.9136 15.1482 79.6058 15.3094 79.3312L16.711 79.5948C16.5852 79.8292 16.4921 80.0895 16.4319 80.3758C16.3612 80.6643 16.3242 80.9566 16.3207 81.2529C16.3046 81.5408 16.3241 81.8158 16.3792 82.0779C16.4872 82.5915 16.6567 82.9553 16.8877 83.1694C17.1166 83.3731 17.3778 83.4441 17.6713 83.3824C17.8914 83.3361 18.0594 83.2242 18.1753 83.0466C18.2912 82.869 18.3434 82.6227 18.3319 82.3077L18.3002 80.6727C18.2828 79.9649 18.4055 79.4028 18.6682 78.9864C18.9287 78.5596 19.342 78.2866 19.908 78.1677C20.4216 78.0597 20.8905 78.1035 21.3146 78.2989C21.7388 78.4943 22.1022 78.8174 22.4049 79.2682C22.6971 79.7212 22.9126 80.2779 23.0514 80.9383Z" fill="white"/>
<path d="M22.0345 72.3669C22.0629 73.1805 21.9217 73.8928 21.6108 74.5038C21.3 75.1149 20.8453 75.597 20.2467 75.9501C19.6375 76.3037 18.9154 76.4951 18.0805 76.5243C17.2455 76.5535 16.5172 76.4128 15.8954 76.1023C15.2737 75.7918 14.7864 75.3427 14.4336 74.7548C14.0808 74.167 13.8902 73.4663 13.8617 72.6528C13.8333 71.8393 13.9745 71.127 14.2853 70.5159C14.5962 69.9049 15.0509 69.4228 15.6495 69.0696C16.248 68.7164 16.9647 68.5252 17.7997 68.496C18.6346 68.4668 19.3683 68.6073 20.0008 68.9174C20.6225 69.2279 21.1098 69.6771 21.4626 70.2649C21.8154 70.8527 22.006 71.5534 22.0345 72.3669ZM20.5091 72.4203C20.4881 71.8209 20.2572 71.3466 19.8163 70.9977C19.3647 70.6491 18.7161 70.4896 17.8704 70.5191C17.0141 70.5491 16.3835 70.7533 15.9788 71.1319C15.5634 71.5108 15.3661 72 15.3871 72.5994C15.4081 73.1989 15.639 73.6731 16.0799 74.0221C16.5101 74.3714 17.1534 74.5311 18.0097 74.5011C18.8553 74.4716 19.4912 74.2671 19.9174 73.8878C20.3328 73.5089 20.5301 73.0197 20.5091 72.4203Z" fill="white"/>
<path d="M22.4461 64.2427C22.3427 65.1688 22.0158 65.8274 21.4655 66.2186C20.9058 66.5979 20.1363 66.7328 19.157 66.6234L10.7265 65.6814L10.9495 63.6856L19.2842 64.6169C19.5929 64.6513 19.8638 64.6385 20.0968 64.5783C20.3204 64.5063 20.4956 64.3858 20.6222 64.2167C20.7489 64.0476 20.8271 63.8301 20.8568 63.5639C20.8699 63.4468 20.8777 63.3292 20.8801 63.2109C20.8826 63.0926 20.8738 62.9785 20.8537 62.8684L22.4309 63.077C22.4521 63.2734 22.4626 63.4685 22.4625 63.6625C22.4742 63.847 22.4687 64.0404 22.4461 64.2427Z" fill="white"/>
<path d="M23.6926 58.1417C23.485 58.9288 23.1441 59.5699 22.6701 60.0652C22.196 60.5605 21.6215 60.8908 20.9465 61.0561C20.2611 61.2187 19.5145 61.1935 18.7067 60.9804C17.8989 60.7673 17.2421 60.4224 16.7365 59.9456C16.2309 59.4688 15.894 58.8981 15.726 58.2334C15.5579 57.5688 15.5777 56.8429 15.7853 56.0558C15.993 55.2687 16.3338 54.6275 16.8079 54.1322C17.2819 53.637 17.8565 53.3067 18.5315 53.1413C19.2065 52.976 19.9479 52.9999 20.7557 53.213C21.5635 53.4261 22.2255 53.7724 22.7414 54.2519C23.2471 54.7286 23.5839 55.2994 23.752 55.964C23.92 56.6287 23.9002 57.3546 23.6926 58.1417ZM22.2168 57.7524C22.3698 57.1724 22.2856 56.6517 21.9642 56.1903C21.6325 55.7262 21.0575 55.3862 20.2394 55.1704C19.4108 54.9518 18.7482 54.9653 18.2514 55.2109C17.7442 55.4537 17.4142 55.8651 17.2612 56.4451C17.1082 57.0251 17.1924 57.5458 17.5137 58.0072C17.8247 58.4658 18.3945 58.8044 19.223 59.023C20.0412 59.2388 20.709 59.2267 21.2266 58.9866C21.7337 58.7437 22.0638 58.3323 22.2168 57.7524Z" fill="white"/>
<path d="M28.6777 46.2128C28.2254 47.0275 27.67 47.5094 27.0115 47.6583C26.3488 47.7927 25.5867 47.6208 24.7252 47.1425L17.3084 43.0251L18.2832 41.2692L25.6157 45.3399C25.8873 45.4906 26.1422 45.5831 26.3804 45.6174C26.6145 45.6371 26.8226 45.5933 27.0046 45.4861C27.1866 45.3789 27.3426 45.2083 27.4726 44.9741C27.5298 44.8711 27.5823 44.7655 27.6301 44.6573C27.6779 44.5491 27.7138 44.4404 27.7377 44.3311L29.1127 45.1313C29.0566 45.3206 28.9911 45.5048 28.9163 45.6837C28.856 45.8585 28.7764 46.0349 28.6777 46.2128Z" fill="white"/>
<path d="M31.7692 41.5845C31.3715 42.1029 30.9488 42.4604 30.501 42.6569C30.0448 42.8469 29.5603 42.8802 29.0475 42.7568C28.5412 42.6249 28.0033 42.3405 27.4339 41.9038L23.6479 38.9995L24.8703 37.406L28.6818 40.3299C28.9707 40.5515 29.2423 40.6991 29.4964 40.7725C29.7571 40.8375 29.9961 40.8251 30.2134 40.7354C30.4373 40.6371 30.647 40.4605 30.8426 40.2055C31.0643 39.9166 31.1928 39.617 31.2284 39.3068C31.2619 38.9815 31.2053 38.6681 31.0586 38.3666C30.91 38.0501 30.6742 37.7679 30.3512 37.5202L26.8456 34.8311L28.068 33.2376L34.3016 38.0194L33.1085 39.5746L31.8083 38.5772L31.9452 38.3987C32.2672 38.9292 32.4113 39.4717 32.3774 40.0262C32.35 40.5722 32.1473 41.0916 31.7692 41.5845Z" fill="white"/>
<path d="M40.3579 36.5056C39.8148 36.9909 39.2465 37.3837 38.6531 37.6841C38.0748 37.9853 37.4917 38.1687 36.9039 38.2342L36.404 36.8065C36.7561 36.7505 37.0987 36.6598 37.432 36.5344C37.7724 36.417 38.0918 36.2681 38.3902 36.0877C38.6886 35.9072 38.9656 35.7028 39.2212 35.4745C39.7563 34.9963 40.0379 34.5078 40.066 34.0087C40.1092 33.5105 39.9025 33.0058 39.4457 32.4946L38.4823 31.4163L38.5902 31.32C38.8343 31.8344 38.8753 32.3866 38.7131 32.9768C38.5518 33.5518 38.2315 34.0534 37.7523 34.4815C37.2251 34.9525 36.6588 35.2431 36.0534 35.3531C35.4408 35.4552 34.8304 35.3829 34.2222 35.1363C33.6141 34.8897 33.0495 34.4748 32.5285 33.8918C32.0076 33.3087 31.6623 32.7052 31.4926 32.0812C31.3157 31.4492 31.3159 30.8386 31.4932 30.2493C31.6634 29.652 32.012 29.1179 32.5392 28.6469C33.0344 28.2045 33.5763 27.9429 34.165 27.8623C34.7545 27.7665 35.2836 27.8683 35.7522 28.1678L35.6563 28.2534L34.5752 27.0433L36.0369 25.7374L40.7469 31.0089C41.3106 31.6399 41.6698 32.267 41.8244 32.8901C41.9861 33.5212 41.9401 34.1369 41.6863 34.737C41.4397 35.3452 40.9969 35.9347 40.3579 36.5056ZM37.1427 32.9794C37.606 32.5655 37.8307 32.0775 37.8168 31.5154C37.8029 30.9533 37.5498 30.3967 37.0574 29.8456C36.565 29.2944 36.0438 28.9844 35.4939 28.9156C34.9369 28.8387 34.4268 29.0072 33.9635 29.4211C33.5002 29.835 33.2755 30.3231 33.2894 30.8852C33.2962 31.4393 33.5457 31.9919 34.0382 32.543C34.5306 33.0942 35.0553 33.4081 35.6123 33.485C36.1693 33.5618 36.6795 33.3933 37.1427 32.9794Z" fill="white"/>
<path d="M45.0574 29.3921C44.5722 29.6869 44.0818 29.8594 43.5861 29.9099C43.094 29.9456 42.6407 29.87 42.2264 29.6831C41.8212 29.4906 41.4963 29.1929 41.2516 28.7901C40.9514 28.2958 40.8432 27.8289 40.9271 27.3894C41.0055 26.9408 41.2941 26.4772 41.793 25.9988C42.2919 25.5203 43.0265 24.9863 43.9969 24.3969L44.6834 23.9799L45.284 24.9686L44.6112 25.3773C44.1809 25.6386 43.8304 25.8765 43.5597 26.0911C43.2835 26.2965 43.076 26.4914 42.9374 26.6759C42.8024 26.8456 42.7299 27.015 42.7198 27.184C42.7188 27.3475 42.7712 27.5162 42.8768 27.6902C43.0603 27.9923 43.3158 28.1755 43.6431 28.2398C43.9704 28.3042 44.3217 28.2224 44.6971 27.9944C44.9992 27.8109 45.2229 27.581 45.3684 27.3046C45.5174 27.0136 45.5855 26.7028 45.5727 26.3722C45.5599 26.0416 45.4562 25.7162 45.2615 25.3958L44.3023 23.8166C44.0243 23.3589 43.7234 23.0905 43.3997 23.0115C43.0759 22.9324 42.676 23.0375 42.2 23.3266C41.8247 23.5546 41.4763 23.8476 41.155 24.2057C40.8281 24.5547 40.5355 24.9705 40.2773 25.4532L39.074 24.5863C39.2119 24.2769 39.4049 23.9655 39.653 23.6518C39.9047 23.3235 40.1896 23.0188 40.5077 22.7379C40.8294 22.4423 41.1505 22.1971 41.4709 22.0025C42.13 21.6021 42.7313 21.3748 43.2747 21.3204C43.8273 21.2604 44.334 21.3725 44.7948 21.6565C45.25 21.9314 45.6722 22.3893 46.0615 23.0301L48.5304 27.0946L46.9239 28.0704L46.0564 26.6424L46.1662 26.5756C46.2968 26.935 46.3382 27.292 46.2906 27.6468C46.2465 27.9869 46.1215 28.3072 45.9155 28.6077C45.7096 28.9082 45.4236 29.1697 45.0574 29.3921Z" fill="white"/>
<path d="M50.2557 26.3605L47.2257 19.1119L49.0341 18.356L49.7653 20.1051L49.617 20.1671C49.5075 19.5163 49.5914 18.9531 49.8685 18.4774C50.1415 17.9918 50.6036 17.5839 51.255 17.2536L51.7997 16.9736L52.5751 18.4953L51.5511 19.0452C50.9731 19.3565 50.597 19.7343 50.4228 20.1786C50.2446 20.613 50.2731 21.1118 50.5086 21.6751L52.1382 25.5736L50.2557 26.3605Z" fill="white"/>
<path d="M55.6347 24.2623L54.9993 22.1214L57.1556 21.4814L57.7911 23.6223L55.6347 24.2623Z" fill="white"/>
</svg>
