<svg width="24" height="49" viewBox="0 0 24 49" fill="none" xmlns="http://www.w3.org/2000/svg">
<path d="M10.2393 40.052C8.58008 39.4618 6.92078 38.8295 5.22004 38.3026C4.45263 38.0496 3.62308 37.8599 2.8142 37.8599C1.71494 37.8599 0.719318 38.8927 0.574133 39.9888C0.47043 40.7687 1.07195 41.9911 1.7564 41.949C4.45269 41.8014 6.40234 43.5509 8.6216 44.5626C10.509 45.4268 12.2512 46.6072 14.1386 47.4714C15.5075 48.1037 16.9593 48.6939 18.4319 48.9257C21.9371 49.4738 24.5297 46.9233 23.9075 43.4455C23.0364 38.6187 21.9371 33.834 20.0704 29.2602C19.6971 28.3749 19.22 27.4896 18.5978 26.773C17.6437 25.677 15.549 26.2882 15.3416 27.7426C15.1757 28.9651 15.3 30.2508 15.383 31.5155C15.5075 33.4546 15.7356 35.3938 15.9223 37.5016C15.2793 37.4805 14.8023 37.607 14.5741 37.4173C10.7786 34.0659 7.58453 30.2087 5.46897 25.5505C3.68527 21.6511 2.91782 17.5831 4.0793 13.2832C5.71782 7.23392 10.4053 3.22916 16.586 2.80761C17.2705 2.76545 17.9342 2.80761 18.4319 2.80761C19.2616 1.88018 18.909 1.22678 18.3075 0.868463C16.9593 0.0675087 15.4868 -0.143258 13.9105 0.0885967C6.56827 1.24787 0.947447 7.29718 0.138557 14.8852C-0.317739 19.3115 0.345985 23.5481 2.23339 27.5951C3.78895 30.9253 5.8423 33.8973 8.16527 36.7006C8.95342 37.6702 9.78309 38.5976 10.592 39.5461C10.4883 39.6937 10.3638 39.8623 10.2393 40.052Z" fill="#5E4DFF"/>
</svg>
