<svg width="529" height="35" xmlns="http://www.w3.org/2000/svg" xmlns:xlink="http://www.w3.org/1999/xlink" xml:space="preserve" overflow="hidden"><g transform="translate(4 -192)"><path d="M0.499836 204.667C0.716884 203.415 1.75879 202.424 2.66671 202.5 70.1828 183.741 126.246 214.851 179.712 202.5 233.178 190.149 293.147 213.577 346.444 202.5 399.741 191.423 441.592 206.569 518.333 202.5 519.66 202.652 520.468 203.585 520.5 204.667 520.635 207.153 519.626 209.85 520.5 213.333 520.316 214.594 519.405 215.221 518.333 215.5 477.264 218.973 415.454 209.442 351.601 215.5 287.748 221.558 231.345 212.033 184.869 215.5 138.393 218.967 76.9594 214.735 2.66671 215.5 1.50526 215.509 0.572426 214.831 0.499836 213.333-0.100026 209.557 1.30375 206.454 0.499836 204.667Z" fill="#FE4611" fill-rule="evenodd"/><path d="M0.499836 204.667C0.469861 203.435 1.49082 202.405 2.66671 202.5 56.3676 201.34 99.5887 206.545 184.869 202.5 270.149 198.455 300.183 219.475 341.288 202.5 382.393 185.525 468.16 206.014 518.333 202.5 519.31 202.554 520.552 203.423 520.5 204.667 521.22 208.374 520.03 210.794 520.5 213.333 520.287 214.59 519.737 215.499 518.333 215.5 434.465 235.606 419.4 208.593 336.131 215.5 252.862 222.407 217.926 210.203 153.929 215.5 89.9313 220.797 61.8371 211.725 2.66671 215.5 1.43629 215.284 0.438441 214.563 0.499836 213.333 0.15422 209.62 1.42437 206.415 0.499836 204.667Z" stroke="#FE4611" stroke-width="6.875" stroke-miterlimit="8" fill="none" fill-rule="evenodd"/></g></svg>