<svg width="132" height="9" viewBox="0 0 132 9" fill="none" xmlns="http://www.w3.org/2000/svg">
<path fill-rule="evenodd" clip-rule="evenodd" d="M115.989 1.1709C98.5992 0.146763 64.8863 -0.313055 47.2251 0.230366C30.4418 0.752885 10.6905 2.50856 2.18386 2.50856C-0.052524 2.50856 -0.198851 2.52945 0.135562 2.86387C0.63718 3.36548 4.73375 3.46999 11.9655 3.15648C17.5669 2.92657 17.6923 2.92657 18.5701 3.34459C19.448 3.7626 19.5943 3.7626 24.8613 3.5536C35.1445 3.13558 42.3134 2.67576 45.2395 2.69666C47.8939 2.71756 48.3329 3.09378 43.3794 3.32369C31.8839 3.88801 31.7585 3.9089 32.511 4.64043C32.8454 4.97484 33.2843 5.01665 37.1718 4.95394C41.4356 4.89124 41.2893 4.78674 41.7909 5.26746C42.1253 5.58097 42.5642 5.74817 43.024 5.76907C46.5563 5.81087 56.5051 6.04079 56.5051 6.04079C53.788 6.12439 50.4647 6.3961 50.2975 6.56331C49.5451 7.31574 50.5274 7.37844 63.0261 7.56654C77.0923 7.75465 87.7517 8.46528 89.0894 8.9669C89.4238 9.0923 89.6119 8.84149 89.382 8.54888C88.5878 7.58745 75.274 7.27393 69.777 6.98132C68.6484 6.91862 67.9378 6.54241 70.9475 6.4379C78.0956 6.20799 75.5248 5.47647 74.7514 5.41376C73.7064 5.33016 71.3028 5.35106 65.367 5.24655C62.5036 5.20475 63.6322 4.84944 65.4924 4.82854C82.6728 4.59863 85.16 4.74494 85.16 4.64043C85.16 3.95071 84.5539 3.86711 76.9669 3.7626C70.2578 3.6581 71.7835 3.24008 76.0682 3.21918C82.3802 3.19828 94.4818 3.40728 94.649 3.15648C94.9834 2.59215 94.1056 2.23685 92.0782 2.09054C88.9013 1.86063 101.693 2.11144 110.952 2.44585C128.237 3.07287 131.121 3.7835 131.121 3.07287C131.163 2.09054 130.682 2.02783 115.989 1.1709Z" fill="#FE4611"/>
</svg>
